<?xml version="1.0" encoding="UTF-8" standalone="no"?>
<svg
   viewBox="0 0 760 160"
   role="img"
   aria-label="水源社区 HTML去水印离线工具"
   version="1.1"
   id="svg12"
   xmlns="http://www.w3.org/2000/svg"
   xmlns:svg="http://www.w3.org/2000/svg">
  <defs
     id="defs8">
    <linearGradient
       id="icon-gradient-main"
       x1="0"
       y1="59.89"
       x2="119.48"
       y2="59.89"
       gradientUnits="userSpaceOnUse">
      <stop
         offset="0"
         stop-color="#4a6cb3"
         id="stop1" />
      <stop
         offset="0.29"
         stop-color="#476bb1"
         id="stop2" />
      <stop
         offset="0.5"
         stop-color="#3e66ad"
         id="stop3" />
      <stop
         offset="0.69"
         stop-color="#2e5ea5"
         id="stop4" />
      <stop
         offset="0.86"
         stop-color="#185399"
         id="stop5" />
      <stop
         offset="1"
         stop-color="#00488d"
         id="stop6" />
    </linearGradient>
    <linearGradient
       id="icon-gradient-accent"
       x1="41.87"
       y1="68.78"
       x2="103.56"
       y2="68.78"
       gradientUnits="userSpaceOnUse">
      <stop
         offset="0"
         stop-color="#6b95ce"
         id="stop7" />
      <stop
         offset="1"
         stop-color="#4a6cb3"
         id="stop8" />
    </linearGradient>
    <style
       id="style8">
      .cls-1{fill:url(#icon-gradient-main)}
      .cls-2{fill:#4a6cb3}
      .cls-3{fill:#103a89}
      .cls-4{fill:url(#icon-gradient-accent)}
    </style>
  </defs>
  <rect
     width="760"
     height="160"
     fill="none"
     id="rect8" />
  <g
     id="shuiyuan-symbol"
     transform="translate(24 20) scale(0.96)">
    <path
       class="cls-1"
       d="M104.39,119.79a9.88,9.88,0,0,1-4-.87l-.16-.08-7.7-4a9.74,9.74,0,0,0-6.75-.85,20.72,20.72,0,0,0-3.39,1.13l-.15.06a57.76,57.76,0,0,1-24.8,4.27,62.1,62.1,0,0,1-39.65-17.35A57.94,57.94,0,0,1,.06,63,60.61,60.61,0,0,1,6,34a2.67,2.67,0,1,1,4.8,2.33A55.3,55.3,0,0,0,5.39,62.74c1.23,27.64,23.75,49.72,52.4,51.37a52.56,52.56,0,0,0,22.5-3.89,26.3,26.3,0,0,1,4.28-1.43A15,15,0,0,1,95,110.1l7.62,4a3.29,3.29,0,0,0,2.95.08,1.78,1.78,0,0,0,.61-1.6l-1.66-13.67a14.36,14.36,0,0,1,2.07-11.29c.07-.12.14-.23.19-.33A51.38,51.38,0,0,0,114,56.12C111.77,27.48,89,5.65,60.87,5.34A54.84,54.84,0,0,0,24.1,18.91a2.67,2.67,0,1,1-3.52-4A60.21,60.21,0,0,1,60.93,0c30.87.35,56,24.3,58.35,55.71A56.47,56.47,0,0,1,111.42,90c-.07.13-.16.27-.27.44a9.08,9.08,0,0,0-1.35,7.47l0,.25,1.7,14.12a7,7,0,0,1-2.93,6.32A7.47,7.47,0,0,1,104.39,119.79Z"
       id="path8" />
    <circle
       class="cls-2"
       cx="22.15"
       cy="47.69"
       r="5.2"
       id="circle8" />
    <path
       class="cls-3"
       d="M48.55,51.46a6.08,6.08,0,0,1-1.54,0c-.54,0-1.07-.06-1.6-.12a22.17,22.17,0,0,1-3.15-.6,24.06,24.06,0,0,1-5.91-2.51l-.28-.17c-5-3-8.78-8.1-8.46-14.19.29-5.45,4.7-11.31,10.68-10.51a7.44,7.44,0,0,1,4.09,2,6.25,6.25,0,0,1,1.72,4.56,18.76,18.76,0,0,1-.57,4.47,30,30,0,0,0-.92,6.46,14.08,14.08,0,0,0,1.29,6.3,10.36,10.36,0,0,0,3.81,3.77Z"
       id="path9" />
    <path
       class="cls-4"
       d="M47.34,58.13c.93-1-.08-2,1.27-1.68a39.23,39.23,0,0,1,10.63,3.64c3.83,2,7.28,4.73,11.38,6.21a18.46,18.46,0,0,0,3.74.94c3.83.51,7.69-.38,11.53-.83a36,36,0,0,1,13.21.69c1.4.36,3.63.83,4.32,2.33.52,1.12-.57,2.82-.91,3.86-.19.59.53.45-.6,2.58-.75,1.4-4.1,5.44-5.67,5.29L59.77,77.6a3.76,3.76,0,0,1-1.52-.48l-14.37-8a3.92,3.92,0,0,1-1-6.05Z"
       id="path10" />
    <path
       class="cls-3"
       d="M19.82,81.72c-1.61-2.81-3.08-5.93-3.09-9.24,0-3.62,2.55-6.83,5.12-9.13a28.56,28.56,0,0,1,14.37-6.81c5.4-.89,11.78-1,16.88,1.21a32.83,32.83,0,0,1,8.81,6c3.88,3.51,7.37,7.48,11.68,10.43a31.37,31.37,0,0,0,17.72,5.45,13.35,13.35,0,0,0,8.46-2.88,9.24,9.24,0,0,0,1.81-1.94,13.29,13.29,0,0,0,2-4.84c.15,2.39-.79,5.32-1.62,7.52a44.14,44.14,0,0,1-3.36,6.83A52.1,52.1,0,0,1,86.92,97.8c-8.56,7.07-33.35,11.64-50.53.63C23.66,90.27,20.45,82.81,19.82,81.72Z"
       id="path11" />
  </g>
  <g
     id="brand-text"
     font-family="Noto Sans CJK SC, PingFang SC, Microsoft YaHei, Source Han Sans SC, sans-serif">
    <path
       d="m 172.736,43.008 v 5.808 h 10.128 c -2.112,8.4 -6.24,15.024 -11.808,18.816 1.392,0.864 3.696,3.12 4.656,4.416 6.768,-5.04 11.952,-14.784 14.112,-27.84 l -3.84,-1.44 -1.056,0.24 z m 35.664,-3.36 c -2.16,3.024 -5.472,6.672 -8.496,9.504 -1.008,-1.968 -1.92,-4.032 -2.64,-6.144 v -11.76 h -6.144 v 37.68 c 0,0.816 -0.288,1.104 -1.104,1.104 -0.912,0 -3.504,0 -6.144,-0.096 0.912,1.728 1.92,4.656 2.16,6.432 3.888,0 6.768,-0.288 8.688,-1.296 1.92,-1.056 2.544,-2.784 2.544,-6.096 V 55.152 c 3.792,7.2 8.88,13.056 15.648,16.656 0.96,-1.68 2.928,-4.128 4.272,-5.328 -6,-2.64 -10.944,-7.2 -14.64,-12.768 3.408,-2.736 7.68,-6.72 11.184,-10.32 z m 39.824,13.968 h 11.088 v 2.688 h -11.088 z m 0,-6.48 h 11.088 v 2.592 h -11.088 z m -4.272,15.168 c -1.2,3.024 -3.12,6.384 -4.992,8.64 1.296,0.672 3.456,1.92 4.512,2.784 1.824,-2.496 4.08,-6.528 5.568,-9.936 z m 13.632,1.392 c 1.536,3.072 3.456,7.104 4.32,9.6 l 5.328,-2.304 c -1.008,-2.352 -3.072,-6.336 -4.656,-9.216 z M 223.6,35.712 c 2.496,1.536 6.144,3.744 7.872,5.136 l 3.504,-4.56 c -1.872,-1.296 -5.616,-3.36 -8.016,-4.704 z m -2.256,12.96 c 2.496,1.44 6.096,3.6 7.824,4.944 l 3.456,-4.656 c -1.92,-1.248 -5.568,-3.168 -8.016,-4.416 z m 0.576,23.904 5.28,3.12 c 2.112,-4.752 4.368,-10.32 6.192,-15.504 l -4.704,-3.12 c -2.064,5.616 -4.8,11.76 -6.768,15.504 z m 21.216,-29.568 v 17.424 h 7.632 v 10.272 c 0,0.528 -0.192,0.672 -0.768,0.672 -0.528,0 -2.496,0 -4.176,-0.048 0.624,1.392 1.248,3.456 1.44,4.944 3.024,0.048 5.232,-0.048 6.912,-0.816 1.68,-0.768 2.064,-2.16 2.064,-4.608 V 60.432 h 8.4 V 43.008 h -9.216 l 1.872,-3.168 -5.424,-0.96 h 14.16 V 33.744 H 235.84 V 47.04 c 0,7.776 -0.432,18.768 -5.856,26.208 1.392,0.624 3.84,2.16 4.848,3.072 5.76,-8.016 6.624,-20.736 6.624,-29.28 v -8.16 h 9.312 c -0.24,1.248 -0.72,2.736 -1.2,4.128 z M 276.72,33.36 c 1.44,1.776 2.976,4.128 3.84,5.904 h -8.4 v 5.184 h 10.992 c -2.928,5.088 -7.632,9.84 -12.432,12.432 0.72,1.152 1.824,4.272 2.208,5.952 1.872,-1.152 3.744,-2.64 5.52,-4.32 v 17.76 h 5.616 V 57.456 c 1.344,1.68 2.688,3.408 3.504,4.656 l 3.552,-4.752 c -0.912,-0.96 -4.416,-4.32 -6.384,-6.048 2.256,-3.12 4.176,-6.528 5.568,-10.08 l -3.024,-2.16 -1.008,0.192 h -4.368 l 3.696,-2.16 c -0.864,-1.776 -2.688,-4.32 -4.368,-6.144 z m 23.52,-1.872 V 45.6 h -9.456 v 5.568 h 9.456 V 69.12 h -11.568 v 5.664 h 27.792 V 69.12 H 306.192 V 51.168 h 9.12 V 45.6 h -9.12 V 31.488 Z m 64.448,1.824 h -40.752 v 41.616 h 42.048 v -5.52 H 329.6 V 38.832 h 35.088 z m -32.064,12 c 3.264,2.592 6.96,5.616 10.512,8.736 -3.84,3.504 -8.16,6.528 -12.528,8.832 1.296,1.008 3.504,3.264 4.416,4.416 4.176,-2.544 8.4,-5.808 12.384,-9.552 3.84,3.504 7.296,6.864 9.552,9.504 l 4.512,-4.272 c -2.448,-2.64 -6.096,-5.952 -10.032,-9.312 3.168,-3.456 6.048,-7.2 8.448,-11.088 l -5.424,-2.208 c -2.016,3.408 -4.512,6.72 -7.344,9.744 -3.648,-2.928 -7.344,-5.808 -10.512,-8.256 z"
       id="text11"
       style="font-weight:700;font-size:48px;letter-spacing:2;fill:#103a89"
       aria-label="水源社区" />
    <path
       d="m 173.525,116 h 2.3 v -8.65 h 8.55 V 116 H 186.7 V 97.675 h -2.325 v 7.675 h -8.55 v -7.675 h -2.3 z m 23.20002,0 h 2.325 V 99.625 h 5.55 v -1.95 h -13.425 v 1.95 h 5.55 z m 12.37502,0 h 2.075 v -10.15 c 0,-1.575 -0.15,-3.8 -0.3,-5.4 h 0.1 l 1.475,4.175 3.475,9.525 h 1.55 l 3.45,-9.525 1.475,-4.175 h 0.1 c -0.125,1.6 -0.3,3.825 -0.3,5.4 V 116 h 2.15 V 97.675 h -2.775 l -3.5,9.8 c -0.425,1.25 -0.8,2.55 -1.275,3.825 h -0.1 c -0.45,-1.275 -0.85,-2.575 -1.325,-3.825 l -3.5,-9.8 h -2.775 z m 21.50001,0 h 10.325 v -1.975 h -8.025 v -16.35 h -2.3 z m 15.87498,1.15 c 0.975,-0.4 2.375,-0.475 16,-1.55 0.5,0.775 0.925,1.5 1.225,2.15 l 1.8,-0.975 c -1.15,-2.2 -3.575,-5.525 -5.85,-8 l -1.675,0.8 c 1.15,1.275 2.35,2.825 3.4,4.325 l -12.4,0.9 c 1.875,-2.075 3.8,-4.675 5.45,-7.4 h 12.2 v -1.875 h -10.3 V 100.8 h 8.45 v -1.875 h -8.45 v -3.95 h -1.975 v 3.95 h -8.25 v 1.875 h 8.25 v 4.725 h -10.175 v 1.875 h 7.925 c -1.6,2.825 -3.725,5.525 -4.4,6.275 -0.75,0.9 -1.325,1.475 -1.875,1.6 0.25,0.525 0.55,1.475 0.65,1.875 z m 24.35,-15.75 v 1.9 h 6.15 c -1.2,4.95 -3.775,8.725 -6.95,10.8 0.45,0.275 1.2,1 1.525,1.45 3.525,-2.5 6.45,-7.2 7.675,-13.75 l -1.225,-0.475 -0.35,0.075 z m 18.65,-1.7 c -1.225,1.7 -3.2,3.925 -4.85,5.475 -0.775,-1.3 -1.475,-2.675 -2.025,-4.075 v -6.05 h -2 v 20.4 c 0,0.425 -0.15,0.525 -0.55,0.55 -0.4,0.025 -1.7,0.025 -3.15,-0.025 0.3,0.575 0.625,1.5 0.725,2.05 1.925,0 3.15,-0.05 3.925,-0.4 0.75,-0.325 1.05,-0.925 1.05,-2.2 v -10.55 c 2.275,4.525 5.525,8.475 9.425,10.525 0.325,-0.55 0.95,-1.325 1.4,-1.725 -3.025,-1.4 -5.75,-4 -7.875,-7.1 1.75,-1.475 3.975,-3.75 5.625,-5.675 z m 8.1,15.375 c 0.625,-0.4 1.6,-0.7 9.1,-2.65 -0.075,-0.4 -0.125,-1.175 -0.125,-1.725 l -6.825,1.625 v -6.675 h 6.925 v -1.825 h -6.925 v -4.7 c 2.4,-0.575 4.975,-1.3 6.9,-2.125 l -1.5,-1.5 c -1.7,0.875 -4.7,1.8 -7.3,2.425 v 13.5 c 0,0.975 -0.625,1.475 -1.075,1.7 0.3,0.475 0.7,1.45 0.825,1.95 z m 11,-18.325 v 21.2 h 1.875 V 98.625 h 5.775 v 13.025 c 0,0.375 -0.125,0.5 -0.525,0.525 -0.425,0 -1.775,0 -3.325,-0.05 0.3,0.55 0.65,1.45 0.75,2.025 1.85,0 3.175,-0.05 3.95,-0.4 0.8,-0.325 1.025,-1 1.025,-2.075 V 96.75 Z m 23.675,-1.425 c 0.3,0.6 0.6,1.325 0.875,1.975 h -10.075 v 1.65 h 21.85 V 97.3 h -9.825 c -0.3,-0.725 -0.75,-1.7 -1.175,-2.475 z m -3.425,20.1 c 0.6,-0.275 1.5,-0.4 9.1,-1.2 0.325,0.475 0.6,0.925 0.8,1.3 l 1.3,-0.9 c -0.625,-1.075 -1.95,-2.85 -3.025,-4.15 l -1.25,0.775 1.225,1.6 -6.15,0.6 c 0.825,-0.975 1.625,-2.075 2.375,-3.25 h 8.775 v 5.8 c 0,0.35 -0.125,0.45 -0.5,0.45 -0.375,0.025 -1.8,0.05 -3.175,-0.025 0.25,0.425 0.55,1.05 0.625,1.5 1.875,0 3.1,0 3.875,-0.25 0.75,-0.25 1.025,-0.7 1.025,-1.65 v -7.45 h -9.625 l 0.95,-1.75 h 7.1 V 99.8 h -1.875 v 5.5 h -12.825 v -5.5 h -1.8 v 7.025 h 7.275 c -0.3,0.6 -0.6,1.2 -0.925,1.75 h -7.95 v 9.4 h 1.825 V 110.2 h 5.175 c -0.6,0.95 -1.125,1.7 -1.4,2.025 -0.6,0.75 -1.05,1.275 -1.55,1.375 0.225,0.5 0.525,1.45 0.625,1.825 z m 8.425,-16.1 c -0.85,0.7 -1.875,1.375 -3,2.025 -1.375,-0.675 -2.8,-1.325 -4.05,-1.9 l -0.8,0.925 c 1.1,0.5 2.325,1.1 3.525,1.7 -1.4,0.725 -2.85,1.35 -4.2,1.85 0.3,0.25 0.775,0.825 0.975,1.1 1.425,-0.625 3.025,-1.4 4.55,-2.275 1.5,0.775 2.9,1.55 3.85,2.125 l 0.85,-1.075 c -0.875,-0.525 -2.075,-1.15 -3.425,-1.825 1.075,-0.65 2.075,-1.35 2.925,-2.025 z m 11.74999,15.325 0.4,1.8 c 2.3,-0.7 5.3,-1.6 8.2,-2.45 l -0.275,-1.6 c -3.075,0.875 -6.25,1.75 -8.325,2.25 z m 16.25,-18.15 c 1.25,0.6 2.825,1.575 3.625,2.275 l 1.1,-1.175 c -0.8,-0.675 -2.4,-1.6 -3.625,-2.15 z m -15.8,8.925 c 0.35,-0.175 0.95,-0.325 4,-0.725 -1.1,1.625 -2.075,2.875 -2.55,3.375 -0.775,0.925 -1.35,1.55 -1.9,1.65 0.225,0.475 0.5,1.35 0.6,1.725 0.525,-0.3 1.375,-0.55 7.65,-1.825 -0.05,-0.375 -0.05,-1.075 0,-1.575 l -4.975,0.9 c 1.9,-2.25 3.8,-5 5.4,-7.75 l -1.575,-0.95 c -0.475,0.925 -1.025,1.875 -1.575,2.775 l -3.175,0.325 c 1.5,-2.125 2.95,-4.825 4.025,-7.45 l -1.75,-0.825 c -1,3 -2.825,6.2 -3.375,7.025 -0.55,0.85 -0.975,1.425 -1.425,1.55 0.225,0.5 0.525,1.4 0.625,1.775 z m 20.375,1.85 c -1,1.575 -2.35,3.025 -3.975,4.275 -0.4,-1.325 -0.75,-2.925 -1,-4.725 l 6.375,-1.2 -0.3,-1.65 -6.3,1.175 c -0.125,-1.05 -0.25,-2.15 -0.325,-3.3 l 6.225,-0.95 -0.3,-1.65 -6.025,0.9 c -0.075,-1.675 -0.1,-3.4 -0.1,-5.2 h -1.85 c 0.025,1.875 0.075,3.7 0.175,5.475 l -3.95,0.575 0.3,1.7 3.75,-0.575 c 0.075,1.15 0.2,2.275 0.325,3.35 l -4.875,0.9 0.3,1.7 4.8,-0.9 c 0.3,2.075 0.7,3.95 1.225,5.5 -2.125,1.425 -4.575,2.55 -7.125,3.325 0.45,0.425 0.925,1.1 1.175,1.55 2.35,-0.825 4.575,-1.9 6.575,-3.2 1.025,2.25 2.375,3.575 4.15,3.575 1.725,0 2.3,-0.825 2.65,-3.625 -0.425,-0.175 -1.025,-0.575 -1.4,-1 -0.125,2.225 -0.375,2.8 -1.05,2.8 -1.1,0 -2.025,-1.025 -2.8,-2.85 1.975,-1.5 3.675,-3.275 4.925,-5.225 z m 5.325,6.925 v 1.875 h 22.475 V 114.2 h -10.3 V 99.75 h 9.025 v -1.925 h -19.9 v 1.925 h 8.8 v 14.45 z m 40.02501,-0.3 c 2.775,1.3 5.675,2.9 7.425,4.125 l 1.5,-1.4 c -1.875,-1.175 -4.9,-2.775 -7.725,-4.05 z m -6.925,-1.225 c -1.55,1.35 -4.675,3.025 -7.2,3.975 0.45,0.35 1.075,0.975 1.375,1.375 2.525,-1.025 5.6,-2.65 7.6,-4.225 z m -2.9,-16.475 v 14.575 h -4 v 1.7 h 22.475 v -1.7 h -3.725 V 96.2 Z m 1.8,14.575 V 108.5 h 11.075 v 2.275 z m 0,-9.425 h 11.075 v 2.125 h -11.075 z m 0,-1.45 v -2.15 h 11.075 v 2.15 z m 0,5 h 11.075 v 2.175 h -11.075 z"
       id="text12"
       style="font-weight:500;font-size:25px;letter-spacing:1.2;fill:#4a6cb3"
       aria-label="HTML去水印离线工具" />
  </g>
</svg>
