<?xml version="1.0" encoding="UTF-8"?>
<svg xmlns="http://www.w3.org/2000/svg" viewBox="0 0 120 120" role="img" aria-label="水源社区图标">

  <defs>
    <linearGradient id="icon-gradient-main" x1="0" y1="59.89" x2="119.48" y2="59.89" gradientUnits="userSpaceOnUse">
      <stop offset="0" stop-color="#4a6cb3"/>
      <stop offset="0.29" stop-color="#476bb1"/>
      <stop offset="0.5" stop-color="#3e66ad"/>
      <stop offset="0.69" stop-color="#2e5ea5"/>
      <stop offset="0.86" stop-color="#185399"/>
      <stop offset="1" stop-color="#00488d"/>
    </linearGradient>
    <linearGradient id="icon-gradient-accent" x1="41.87" y1="68.78" x2="103.56" y2="68.78" gradientUnits="userSpaceOnUse">
      <stop offset="0" stop-color="#6b95ce"/>
      <stop offset="1" stop-color="#4a6cb3"/>
    </linearGradient>
    <style>
      .cls-1{fill:url(#icon-gradient-main)}
      .cls-2{fill:#4a6cb3}
      .cls-3{fill:#103a89}
      .cls-4{fill:url(#icon-gradient-accent)}
    </style>
  </defs>
  <g id="shuiyuan-symbol">
<path class="cls-1" d="M104.39,119.79a9.88,9.88,0,0,1-4-.87l-.16-.08-7.7-4a9.74,9.74,0,0,0-6.75-.85,20.72,20.72,0,0,0-3.39,1.13l-.15.06a57.76,57.76,0,0,1-24.8,4.27,62.1,62.1,0,0,1-39.65-17.35A57.94,57.94,0,0,1,.06,63,60.61,60.61,0,0,1,6,34a2.67,2.67,0,1,1,4.8,2.33A55.3,55.3,0,0,0,5.39,62.74c1.23,27.64,23.75,49.72,52.4,51.37a52.56,52.56,0,0,0,22.5-3.89,26.3,26.3,0,0,1,4.28-1.43A15,15,0,0,1,95,110.1l7.62,4a3.29,3.29,0,0,0,2.95.08,1.78,1.78,0,0,0,.61-1.6l-1.66-13.67a14.36,14.36,0,0,1,2.07-11.29c.07-.12.14-.23.19-.33A51.38,51.38,0,0,0,114,56.12C111.77,27.48,89,5.65,60.87,5.34A54.84,54.84,0,0,0,24.1,18.91a2.67,2.67,0,1,1-3.52-4A60.21,60.21,0,0,1,60.93,0c30.87.35,56,24.3,58.35,55.71A56.47,56.47,0,0,1,111.42,90c-.07.13-.16.27-.27.44a9.08,9.08,0,0,0-1.35,7.47l0,.25,1.7,14.12a7,7,0,0,1-2.93,6.32A7.47,7.47,0,0,1,104.39,119.79Z"/>
    <circle class="cls-2" cx="22.15" cy="47.69" r="5.2"/>
    <path class="cls-3" d="M48.55,51.46a6.08,6.08,0,0,1-1.54,0c-.54,0-1.07-.06-1.6-.12a22.17,22.17,0,0,1-3.15-.6,24.06,24.06,0,0,1-5.91-2.51l-.28-.17c-5-3-8.78-8.1-8.46-14.19.29-5.45,4.7-11.31,10.68-10.51a7.44,7.44,0,0,1,4.09,2,6.25,6.25,0,0,1,1.72,4.56,18.76,18.76,0,0,1-.57,4.47,30,30,0,0,0-.92,6.46,14.08,14.08,0,0,0,1.29,6.3,10.36,10.36,0,0,0,3.81,3.77Z"/>
    <path class="cls-4" d="M47.34,58.13c.93-1-.08-2,1.27-1.68a39.23,39.23,0,0,1,10.63,3.64c3.83,2,7.28,4.73,11.38,6.21a18.46,18.46,0,0,0,3.74.94c3.83.51,7.69-.38,11.53-.83a36,36,0,0,1,13.21.69c1.4.36,3.63.83,4.32,2.33.52,1.12-.57,2.82-.91,3.86-.19.59.53.45-.6,2.58-.75,1.4-4.1,5.44-5.67,5.29L59.77,77.6a3.76,3.76,0,0,1-1.52-.48l-14.37-8a3.92,3.92,0,0,1-1-6.05Z"/>
    <path class="cls-3" d="M19.82,81.72c-1.61-2.81-3.08-5.93-3.09-9.24,0-3.62,2.55-6.83,5.12-9.13a28.56,28.56,0,0,1,14.37-6.81c5.4-.89,11.78-1,16.88,1.21a32.83,32.83,0,0,1,8.81,6c3.88,3.51,7.37,7.48,11.68,10.43a31.37,31.37,0,0,0,17.72,5.45,13.35,13.35,0,0,0,8.46-2.88,9.24,9.24,0,0,0,1.81-1.94,13.29,13.29,0,0,0,2-4.84c.15,2.39-.79,5.32-1.62,7.52a44.14,44.14,0,0,1-3.36,6.83A52.1,52.1,0,0,1,86.92,97.8c-8.56,7.07-33.35,11.64-50.53.63C23.66,90.27,20.45,82.81,19.82,81.72Z"/>
  </g>
</svg>
